<?xml version="1.0" encoding="UTF-8" standalone="no"?>
<!-- Created with Inkscape (http://www.inkscape.org/) -->

<svg
   width="35"
   height="35"
   viewBox="0 0 9.2604165 9.2604166"
   version="1.1"
   id="svg1"
   xml:space="preserve"
   inkscape:version="1.4.2 (f4327f4, 2025-05-13)"
   sodipodi:docname="icon.svg"
   inkscape:export-filename="temp\icon.png"
   inkscape:export-xdpi="1404.34"
   inkscape:export-ydpi="1404.34"
   xmlns:inkscape="http://www.inkscape.org/namespaces/inkscape"
   xmlns:sodipodi="http://sodipodi.sourceforge.net/DTD/sodipodi-0.dtd"
   xmlns="http://www.w3.org/2000/svg"
   xmlns:svg="http://www.w3.org/2000/svg"><sodipodi:namedview
     id="namedview1"
     pagecolor="#ffffff"
     bordercolor="#000000"
     borderopacity="0.25"
     inkscape:showpageshadow="2"
     inkscape:pageopacity="0.0"
     inkscape:pagecheckerboard="0"
     inkscape:deskcolor="#d1d1d1"
     inkscape:document-units="px"
     showgrid="true"
     inkscape:zoom="23.005387"
     inkscape:cx="22.777274"
     inkscape:cy="15.148626"
     inkscape:window-width="1920"
     inkscape:window-height="991"
     inkscape:window-x="-9"
     inkscape:window-y="-9"
     inkscape:window-maximized="1"
     inkscape:current-layer="layer1"><inkscape:grid
       id="grid1"
       units="mm"
       originx="-3.4336548"
       originy="-1.4615208"
       spacingx="0.99999998"
       spacingy="1"
       empcolor="#0099e5"
       empopacity="0.30196078"
       color="#0099e5"
       opacity="0.14901961"
       empspacing="5"
       enabled="true"
       visible="true" /></sodipodi:namedview><defs
     id="defs1" /><g
     inkscape:label="Слой 1"
     inkscape:groupmode="layer"
     id="layer1"
     transform="translate(-3.4336548,-1.4615208)"><path
       id="path12"
       style="fill:none;stroke:#000000;stroke-width:0.266;stroke-linecap:round;stroke-linejoin:round;stroke-dasharray:none"
       d="M 7.2008088,8.1476925 C 7.2990583,7.8279827 7.4826834,7.5454383 7.6399576,7.2531299 L 7.8961277,7.9484491 7.5979602,7.8104276 Z M 8.6661425,6.6485033 C 8.7307259,7.1928259 9.4155527,7.2897589 9.877806,7.042508 10.284406,6.7724977 10.506973,6.2814371 10.227134,5.7925124 9.9305995,5.3993456 9.327998,5.5833746 8.9870524,5.8165737 8.7593108,6.0020944 8.6891566,6.2779724 8.6661425,6.6485033 Z M 5.4631338,6.0907082 C 5.3861569,6.4400424 5.6072926,6.8732053 5.9916847,6.8429717 6.4627758,6.8695223 6.9716828,6.5297025 7.0082341,6.0364311 7.0494456,5.541102 6.4308121,5.1562504 6.0024057,5.4061031 5.7104004,5.5454771 5.5154595,5.8351063 5.4631338,6.0907082 Z M 4.8827455,2.5145323 C 4.9614568,2.4089424 5.1009143,2.340887 5.2881531,2.3235754 m 5.7098029,0.365733 c 0.16555,-0.067903 0.369758,-0.060685 0.514668,0.05176 m -0.793566,0.3651488 c 0.276639,-0.074244 0.64326,8.339e-4 0.74756,0.3019007 m -1.043709,-0.057506 c 0.359495,-0.0374 0.737875,0.239285 0.764811,0.6095526 M 4.944072,3.0324221 C 5.0279175,2.8027187 5.2765692,2.6645751 5.5052066,2.6054728 M 5.1311168,3.5203654 C 5.228414,3.159562 5.606206,3.0081377 5.9362232,2.9348331 M 10.01868,3.53663 c 0.318609,-0.1049774 0.608536,-0.2938894 0.802509,-0.5712351 0.219574,-0.2924308 0.361333,-0.6369975 0.420133,-0.996983 0.041,-0.2372879 0.169403,0.2933488 0.210607,0.3824914 0.151212,0.5538534 0.117391,1.2073823 -0.278463,1.6553153 -0.07777,0.091994 -0.145214,0.1652754 -0.219562,0.2460614 M 7.152014,9.4854696 C 6.7214162,10.126909 7.6080615,10.979505 8.0016132,10.088371 8.1091498,9.8732196 8.1401125,9.6321105 8.2092245,9.4041458 m 0.4716783,0.1301181 c 0.05636,0.8482321 1.315337,0.5461841 1.090173,-0.2608546 C 9.6377433,8.4362976 10.100516,7.981076 10.875267,7.4963945 11.650018,7.011713 11.833882,5.5812629 11.328657,4.7049353 11.03083,4.2632001 10.533353,3.8496764 10.027837,3.5490031 9.7222988,3.3672733 9.6124455,3.2828972 9.0461006,3.1487177 8.4797557,3.0145382 7.7841857,3.0239205 7.1520143,2.9876947 M 5.3419846,3.9198786 C 5.1115746,3.6869549 4.7925575,2.9107641 4.8503823,2.3803358 4.8761498,2.2097665 4.9685981,1.6090126 5.0814051,1.7208788 5.0960395,2.2396537 5.5129525,2.6024602 5.6816514,2.7439379 5.8503504,2.8854157 6.512019,3.1015004 6.512019,3.1015004 6.105043,3.2964313 5.684099,3.5757843 5.3542969,3.9244253 4.9764974,4.3238054 4.7093207,4.8105174 4.5460767,5.3286119 4.2674595,6.2410737 4.8602756,7.1801728 5.6913548,7.547307 6.4233618,7.9181885 5.8808044,8.9158834 6.0120897,9.5579296 6.2016156,10.10543 6.6769945,9.6649099 6.8185868,9.347219"
       sodipodi:nodetypes="cccccccccccccccccccccccccccccccccccccczcszccccscscccc" /><path
       style="fill:#00ffff;stroke:#000080;stroke-width:0.266;stroke-linecap:round;stroke-linejoin:round;stroke-dasharray:none"
       d="M 6.4353974,5.1935724 C 6.3393954,5.3587281 6.3645666,5.5917597 6.5196156,5.75149 6.6619863,5.9027642 6.6750541,6.1200444 6.5519594,6.3218063 6.4579957,6.4839339 6.1886043,6.4832611 6.0246433,6.4182942 5.8202601,6.3288702 5.7264502,6.0429657 5.8339704,5.8431012 c 0.058703,-0.1214476 0.093725,-0.5323605 0.141574,-0.2139519 -0.00198,0.08661 0.1779731,0.2961633 0.1416137,0.0841 -0.00141,-0.2231515 0.073864,-0.4854788 0.3182393,-0.5196769 z"
       id="path13"
       sodipodi:nodetypes="cccccccc" /><path
       style="fill:#00ffff;stroke:#000080;stroke-width:0.266;stroke-linecap:round;stroke-linejoin:round;stroke-dasharray:none"
       d="m 9.7217137,5.4772579 c -0.096,0.1651557 -0.07083,0.3981873 0.08422,0.5579176 0.142371,0.1512742 0.155439,0.3685544 0.03234,0.5703163 -0.09396,0.1621276 -0.363355,0.1614548 -0.527316,0.096488 -0.204383,-0.089424 -0.298193,-0.3753285 -0.190673,-0.575193 0.0587,-0.1214476 0.09373,-0.5323605 0.141574,-0.2139519 -0.002,0.08661 0.177973,0.2961633 0.141614,0.0841 -0.0014,-0.2231515 0.07386,-0.4854788 0.318239,-0.5196769 z"
       id="path13-1"
       sodipodi:nodetypes="cccccccc" /></g></svg>
